{
  "accessors": [
    {
      "bufferView": 2,
      "componentType": 5126,
      "count": 1256,
      "max": [
        33.95100402832031,
        33.96030807495117,
        8.651325225830078
      ],
      "min": [
        -33.91583251953125,
        -33.906532287597656,
        -10.950004577636719
      ],
      "type": "VEC3"
    },
    {
      "bufferView": 2,
      "byteOffset": 15072,
      "componentType": 5126,
      "count": 1256,
      "max": [
        1.0,
        1.0,
        1.0
      ],
      "min": [
        -1.0,
        -1.0,
        -1.0
      ],
      "type": "VEC3"
    },
    {
      "bufferView": 1,
      "componentType": 5126,
      "count": 1256,
      "max": [
        0.9987179040908813,
        0.9800764322280884
      ],
      "min": [
        0.009331097826361656,
        -0.35587751865386963
      ],
      "type": "VEC2"
    },
    {
      "bufferView": 0,
      "componentType": 5125,
      "count": 3798,
      "type": "SCALAR"
    },
    {
      "bufferView": 2,
      "byteOffset": 30144,
      "componentType": 5126,
      "count": 120,
      "max": [
        33.95100402832031,
        33.96030807495117,
        1.106888771057129
      ],
      "min": [
        -33.91583251953125,
        -33.906532287597656,
        -0.6024479866027832
      ],
      "type": "VEC3"
    },
    {
      "bufferView": 2,
      "byteOffset": 31584,
      "componentType": 5126,
      "count": 120,
      "max": [
        1.0,
        1.0,
        1.3082609257253353e-05
      ],
      "min": [
        -1.0,
        -1.0,
        -1.9622912077466026e-05
      ],
      "type": "VEC3"
    },
    {
      "bufferView": 1,
      "byteOffset": 10048,
      "componentType": 5126,
      "count": 120,
      "max": [
        0.9872406125068665,
        0.22222498059272766
      ],
      "min": [
        0.009855001233518124,
        0.19135551154613495
      ],
      "type": "VEC2"
    },
    {
      "bufferView": 0,
      "byteOffset": 15192,
      "componentType": 5125,
      "count": 264,
      "type": "SCALAR"
    },
    {
      "bufferView": 2,
      "byteOffset": 33024,
      "componentType": 5126,
      "count": 193,
      "max": [
        14.862229347229004,
        14.862229347229004,
        16.086761474609375
      ],
      "min": [
        -14.862229347229004,
        -14.862229347229004,
        6.156136989593506
      ],
      "type": "VEC3"
    },
    {
      "bufferView": 2,
      "byteOffset": 35340,
      "componentType": 5126,
      "count": 193,
      "max": [
        0.8819214701652527,
        0.8819214701652527,
        1.0
      ],
      "min": [
        -0.8819214701652527,
        -0.8819214701652527,
        0.47139638662338257
      ],
      "type": "VEC3"
    },
    {
      "bufferView": 1,
      "byteOffset": 11008,
      "componentType": 5126,
      "count": 193,
      "max": [
        0.9922010898590088,
        0.2966236472129822
      ],
      "min": [
        0.7081841230392456,
        0.012805677950382233
      ],
      "type": "VEC2"
    },
    {
      "bufferView": 0,
      "byteOffset": 16248,
      "componentType": 5125,
      "count": 1056,
      "type": "SCALAR"
    }
  ],
  "asset": {
    "extras": {
      "author": "1235jgf (https://sketchfab.com/1235jgf)",
      "license": "CC-BY-4.0 (http://creativecommons.org/licenses/by/4.0/)",
      "source": "https://sketchfab.com/3d-models/nlo-a8facd132f8549bb82695af2dc65fda9",
      "title": "NLO"
    },
    "generator": "Sketchfab-12.63.0",
    "version": "2.0"
  },
  "bufferViews": [
    {
      "buffer": 0,
      "byteLength": 20472,
      "name": "floatBufferViews",
      "target": 34963
    },
    {
      "buffer": 0,
      "byteLength": 12552,
      "byteOffset": 20472,
      "byteStride": 8,
      "name": "floatBufferViews",
      "target": 34962
    },
    {
      "buffer": 0,
      "byteLength": 37656,
      "byteOffset": 33024,
      "byteStride": 12,
      "name": "floatBufferViews",
      "target": 34962
    }
  ],
  "buffers": [
    {
      "byteLength": 70680,
      "uri": "scene.bin"
    }
  ],
  "images": [
    {
      "uri": "textures/UFO_texture_2_baseColor.png"
    },
    {
      "uri": "textures/UFO_texture2_1_baseColor.png"
    }
  ],
  "materials": [
    {
      "doubleSided": true,
      "emissiveFactor": [
        0.7488567073,
        0.7488567073,
        0.7488567073
      ],
      "emissiveTexture": {
        "index": 0
      },
      "name": "UFO_texture_2",
      "pbrMetallicRoughness": {
        "baseColorTexture": {
          "index": 0
        },
        "metallicFactor": 0.7212271341,
        "roughnessFactor": 0.7395198170731707
      }
    },
    {
      "doubleSided": true,
      "name": "UFO_texture2_1",
      "pbrMetallicRoughness": {
        "baseColorTexture": {
          "index": 1
        },
        "metallicFactor": 0.0,
        "roughnessFactor": 0.9577051495
      }
    },
    {
      "alphaMode": "BLEND",
      "doubleSided": true,
      "name": "Glass_Basic_White",
      "pbrMetallicRoughness": {
        "baseColorFactor": [
          1.0,
          1.0,
          1.0,
          0.0626905488
        ],
        "metallicFactor": 0.251714939,
        "roughnessFactor": 0.02877286585365857
      }
    }
  ],
  "meshes": [
    {
      "name": "UFO_body_UFO_texture #2_0",
      "primitives": [
        {
          "attributes": {
            "NORMAL": 1,
            "POSITION": 0,
            "TEXCOORD_0": 2
          },
          "indices": 3,
          "material": 0,
          "mode": 4
        }
      ]
    },
    {
      "name": "UFO_body_UFO_texture2 #1_0",
      "primitives": [
        {
          "attributes": {
            "NORMAL": 5,
            "POSITION": 4,
            "TEXCOORD_0": 6
          },
          "indices": 7,
          "material": 1,
          "mode": 4
        }
      ]
    },
    {
      "name": "UFO_cockpit_Glass Basic White_0",
      "primitives": [
        {
          "attributes": {
            "NORMAL": 9,
            "POSITION": 8,
            "TEXCOORD_0": 10
          },
          "indices": 11,
          "material": 2,
          "mode": 4
        }
      ]
    }
  ],
  "nodes": [
    {
      "children": [
        1
      ],
      "matrix": [
        1.0,
        0.0,
        0.0,
        0.0,
        0.0,
        2.220446049250313e-16,
        -1.0,
        0.0,
        0.0,
        1.0,
        2.220446049250313e-16,
        0.0,
        0.0,
        0.0,
        0.0,
        1.0
      ],
      "name": "Sketchfab_model"
    },
    {
      "children": [
        2
      ],
      "matrix": [
        1.0,
        0.0,
        0.0,
        0.0,
        0.0,
        0.0,
        1.0,
        0.0,
        0.0,
        -1.0,
        0.0,
        0.0,
        0.0,
        0.0,
        0.0,
        1.0
      ],
      "name": "d9bf6294db2a4cd9a087d0d494c56111.fbx"
    },
    {
      "children": [
        3,
        5,
        7
      ],
      "name": "RootNode"
    },
    {
      "children": [
        4
      ],
      "matrix": [
        0.44348397156915564,
        -0.7552399605637885,
        -0.4826329546651943,
        0.0,
        -0.8962823031619216,
        -0.37369561224030656,
        -0.23880875702348878,
        0.0,
        9.87557491061164e-08,
        0.5384832321994338,
        -0.8426362255683295,
        0.0,
        -236.23016357421875,
        860.3779907226563,
        145.9254608154297,
        1.0
      ],
      "name": "Camera.1"
    },
    {
      "name": "Object_4"
    },
    {
      "children": [
        6
      ],
      "matrix": [
        0.4817537885982891,
        0.0,
        -0.8763066170988297,
        0.0,
        -0.8763066170988297,
        2.220446049250313e-16,
        -0.48175378859828916,
        0.0,
        1.1102230246251565e-16,
        1.0,
        1.1102230246251565e-16,
        0.0,
        -727.5171508789063,
        641.18701171875,
        1401.3184814453125,
        1.0
      ],
      "name": "Camera"
    },
    {
      "name": "Object_6"
    },
    {
      "children": [
        8
      ],
      "name": "Default"
    },
    {
      "children": [
        9
      ],
      "matrix": [
        2.539998769760132,
        0.0,
        0.0,
        0.0,
        0.0,
        2.539998769760132,
        0.0,
        0.0,
        0.0,
        0.0,
        2.539998769760132,
        0.0,
        3.3769142627716064,
        -28.427398681640625,
        -0.879214346408844,
        1.0
      ],
      "name": "Low_poly_UFO"
    },
    {
      "children": [
        10
      ],
      "name": "RootNode"
    },
    {
      "children": [
        11,
        16
      ],
      "matrix": [
        0.9999999999999544,
        -2.6469779601696886e-23,
        3.0199200296009155e-07,
        0.0,
        3.0199200296009155e-07,
        4.440892098500626e-16,
        -0.9999999999999545,
        0.0,
        -1.0587911840678754e-22,
        1.0,
        4.440892098500626e-16,
        0.0,
        -1.3470799922943115,
        22.14189910888672,
        0.3730350136756897,
        1.0
      ],
      "name": "UFO_body"
    },
    {
      "children": [
        12,
        14
      ],
      "matrix": [
        1.0,
        0.0,
        1.1754943508222875e-38,
        0.0,
        1.1591269220898192e-69,
        1.0,
        -9.860761315262648e-32,
        0.0,
        -1.1754943508222875e-38,
        9.860761315262648e-32,
        1.0,
        0.0,
        0.0,
        0.0,
        0.0,
        1.0
      ],
      "name": "UFO_body"
    },
    {
      "children": [
        13
      ],
      "matrix": [
        1.0,
        0.0,
        0.0,
        0.0,
        0.0,
        1.0,
        -4.930380657631324e-32,
        0.0,
        0.0,
        4.930380657631324e-32,
        1.0,
        0.0,
        0.0,
        0.0,
        0.0,
        1.0
      ],
      "name": "UFO_body"
    },
    {
      "mesh": 0,
      "name": "UFO_body_UFO_texture #2_0"
    },
    {
      "children": [
        15
      ],
      "matrix": [
        1.0,
        0.0,
        0.0,
        0.0,
        0.0,
        1.0,
        -4.930380657631324e-32,
        0.0,
        0.0,
        4.930380657631324e-32,
        1.0,
        0.0,
        0.0,
        0.0,
        0.0,
        1.0
      ],
      "name": "UFO_body"
    },
    {
      "mesh": 1,
      "name": "UFO_body_UFO_texture2 #1_0"
    },
    {
      "children": [
        17
      ],
      "matrix": [
        0.9999999999999847,
        1.7484599368344527e-07,
        5.8774717541113436e-39,
        0.0,
        -1.7484599368344527e-07,
        0.9999999999999847,
        -9.860761315262495e-32,
        0.0,
        -2.311861786053473e-38,
        9.860761315262241e-32,
        1.0,
        0.0,
        -1.1920899822825959e-07,
        5.551115123125783e-17,
        0.0,
        1.0
      ],
      "name": "UFO_cockpit"
    },
    {
      "children": [
        18
      ],
      "matrix": [
        1.0,
        0.0,
        1.1754943508222878e-38,
        0.0,
        0.0,
        1.0,
        0.0,
        0.0,
        -1.1754943508222878e-38,
        0.0,
        1.0,
        0.0,
        0.0,
        0.0,
        0.0,
        1.0
      ],
      "name": "UFO_cockpit"
    },
    {
      "children": [
        19
      ],
      "matrix": [
        1.0,
        0.0,
        5.877471754111439e-39,
        0.0,
        0.0,
        1.0,
        0.0,
        0.0,
        -5.877471754111439e-39,
        0.0,
        1.0,
        0.0,
        0.0,
        0.0,
        0.0,
        1.0
      ],
      "name": "UFO_cockpit"
    },
    {
      "mesh": 2,
      "name": "UFO_cockpit_Glass Basic White_0"
    }
  ],
  "samplers": [
    {
      "magFilter": 9729,
      "minFilter": 9987,
      "wrapS": 10497,
      "wrapT": 10497
    }
  ],
  "scene": 0,
  "scenes": [
    {
      "name": "Sketchfab_Scene",
      "nodes": [
        0
      ]
    }
  ],
  "textures": [
    {
      "sampler": 0,
      "source": 0
    },
    {
      "sampler": 0,
      "source": 1
    }
  ]
}
