<svg width="204" height="34" viewBox="0 0 449 75" fill="none" xmlns="http://www.w3.org/2000/svg">
<path d="M146.89 46.342C147.482 46.6873 147.926 47.304 148.222 48.192C148.567 49.08 148.74 50.0173 148.74 51.004C148.74 52.1387 148.543 53.1007 148.148 53.89C147.753 54.63 147.161 55 146.372 55H122.84C121.212 55 119.88 54.556 118.844 53.668C117.808 52.78 117.29 51.5713 117.29 50.042V15.188C117.29 11.4387 116.821 8.33066 115.884 5.864C117.068 4.87733 118.252 4.236 119.436 3.94C120.669 3.59466 122.421 3.422 124.69 3.422H146.15C146.693 3.422 147.087 3.66866 147.334 4.162C147.581 4.65533 147.704 5.29666 147.704 6.086C147.704 7.22067 147.457 8.38 146.964 9.564C146.471 10.748 145.854 11.5127 145.114 11.858C139.293 9.49 133.225 8.232 126.91 8.084V25.622H142.968C143.215 26.51 143.338 27.3487 143.338 28.138C143.338 29.0753 143.215 29.988 142.968 30.876H126.984V50.338C130.24 50.2393 133.841 49.7953 137.788 49.006C141.735 48.1673 144.769 47.2793 146.89 46.342ZM165.594 55.74C162.733 55.74 160.537 54.852 159.008 53.076C157.479 51.2507 156.714 48.7347 156.714 45.528V5.79C156.714 4.21133 157.232 2.978 158.268 2.09C159.304 1.202 160.636 0.757997 162.264 0.757997C163.448 0.757997 164.509 0.979997 165.446 1.424C166.383 1.868 167.123 2.36133 167.666 2.904C167.123 5.02533 166.753 7.122 166.556 9.194C166.359 11.266 166.26 13.9793 166.26 17.334V44.714C166.26 47.3287 167.148 48.636 168.924 48.636C169.319 48.636 169.738 48.562 170.182 48.414C170.626 48.2167 170.947 47.9453 171.144 47.6C171.785 48.5373 172.106 49.5487 172.106 50.634C172.106 52.114 171.465 53.3473 170.182 54.334C168.949 55.2713 167.419 55.74 165.594 55.74ZM183.283 12.154C181.754 12.154 180.446 11.636 179.361 10.6C178.276 9.51466 177.733 8.20733 177.733 6.678C177.733 5.09933 178.276 3.792 179.361 2.756C180.446 1.67066 181.754 1.128 183.283 1.128C184.812 1.128 186.095 1.67066 187.131 2.756C188.167 3.792 188.685 5.09933 188.685 6.678C188.685 8.20733 188.167 9.51466 187.131 10.6C186.095 11.636 184.812 12.154 183.283 12.154ZM188.389 44.566C188.389 48.4633 188.858 51.5713 189.795 53.89C188.216 55.3207 186.366 56.036 184.245 56.036C182.716 56.036 181.433 55.592 180.397 54.704C179.41 53.816 178.917 52.6073 178.917 51.078V27.25C178.917 23.5007 178.448 20.368 177.511 17.852C179.04 16.4707 180.816 15.78 182.839 15.78C184.467 15.78 185.774 16.224 186.761 17.112C187.797 17.9507 188.315 19.1593 188.315 20.738L188.389 44.566ZM233.859 47.6C234.5 48.5373 234.821 49.5487 234.821 50.634C234.821 52.0647 234.204 53.2733 232.971 54.26C231.738 55.2467 230.085 55.74 228.013 55.74C225.645 55.74 223.795 54.9753 222.463 53.446C221.131 51.8673 220.366 49.3267 220.169 45.824C218.788 48.8333 216.864 51.2507 214.397 53.076C211.93 54.852 209.069 55.74 205.813 55.74C202.902 55.74 200.559 54.9753 198.783 53.446C197.007 51.9167 196.119 49.7707 196.119 47.008C196.119 43.8507 197.328 41.2607 199.745 39.238C202.162 37.2153 205.221 35.6613 208.921 34.576C212.128 33.688 215.655 33.1947 219.503 33.096V31.246C219.503 27.0527 219.01 23.9693 218.023 21.996C217.036 20.0227 215.334 19.036 212.917 19.036C211.338 19.036 210.056 19.5047 209.069 20.442C208.082 21.33 207.589 22.7113 207.589 24.586C207.589 27.2007 208.477 29.026 210.253 30.062C209.71 30.6047 208.97 31.024 208.033 31.32C207.145 31.616 206.183 31.764 205.147 31.764C202.878 31.764 201.077 31.1227 199.745 29.84C198.462 28.5573 197.821 26.9293 197.821 24.956C197.821 22.0453 199.227 19.8007 202.039 18.222C204.851 16.594 208.674 15.78 213.509 15.78C218.985 15.78 222.981 17.038 225.497 19.554C228.062 22.07 229.345 26.1647 229.345 31.838V44.714C229.345 47.3287 230.159 48.636 231.787 48.636C232.132 48.636 232.502 48.562 232.897 48.414C233.292 48.2167 233.612 47.9453 233.859 47.6ZM210.253 49.524C211.684 49.524 213.139 48.932 214.619 47.748C216.099 46.564 217.332 44.9607 218.319 42.938C219.306 40.866 219.799 38.6213 219.799 36.204C215.902 36.204 212.991 36.7467 211.067 37.832C209.686 38.5227 208.576 39.46 207.737 40.644C206.948 41.828 206.553 43.1847 206.553 44.714C206.553 46.046 206.849 47.1807 207.441 48.118C208.082 49.0553 209.02 49.524 210.253 49.524ZM251.651 56.036C247.014 56.036 243.486 55.2467 241.069 53.668C238.701 52.0893 237.517 49.9927 237.517 47.378C237.517 45.9967 237.936 44.788 238.775 43.752C239.663 42.716 241.044 42.198 242.919 42.198C243.264 42.198 243.832 42.2473 244.621 42.346C244.522 42.7407 244.473 43.308 244.473 44.048C244.473 44.8867 244.572 45.6267 244.769 46.268C245.016 47.9947 245.83 49.4747 247.211 50.708C248.592 51.892 250.516 52.484 252.983 52.484C255.006 52.484 256.634 52.114 257.867 51.374C259.1 50.5847 259.717 49.4253 259.717 47.896C259.717 46.6627 259.322 45.6267 258.533 44.788C257.793 43.9 256.905 43.1847 255.869 42.642C254.882 42.05 253.23 41.2113 250.911 40.126C248.247 38.8433 246.126 37.7087 244.547 36.722C242.968 35.7353 241.612 34.4033 240.477 32.726C239.342 31.0487 238.775 28.9767 238.775 26.51C238.775 22.9087 240.156 20.22 242.919 18.444C245.682 16.6187 249.184 15.706 253.427 15.706C257.522 15.706 260.778 16.3473 263.195 17.63C265.662 18.8633 266.895 20.6393 266.895 22.958C266.895 24.1913 266.525 25.2273 265.785 26.066C265.094 26.9047 263.96 27.3487 262.381 27.398C262.134 27.4473 261.764 27.472 261.271 27.472C260.975 27.472 260.482 27.4227 259.791 27.324C259.84 27.0773 259.865 26.658 259.865 26.066C259.865 24.8327 259.668 23.8213 259.273 23.032C258.878 21.7987 258.138 20.8367 257.053 20.146C255.968 19.4553 254.636 19.11 253.057 19.11C251.429 19.11 250.072 19.4553 248.987 20.146C247.902 20.8367 247.359 21.8727 247.359 23.254C247.359 24.5367 247.754 25.6713 248.543 26.658C249.332 27.5953 250.294 28.4093 251.429 29.1C252.613 29.7413 254.266 30.58 256.387 31.616C259.051 32.8987 261.172 34.0333 262.751 35.02C264.379 35.9573 265.76 37.1907 266.895 38.72C268.079 40.2493 268.671 42.0747 268.671 44.196C268.671 46.268 268.079 48.2167 266.895 50.042C265.76 51.818 263.91 53.2733 261.345 54.408C258.829 55.4933 255.598 56.036 251.651 56.036ZM315.852 44.566C315.852 48.4633 316.321 51.5713 317.258 53.89C316.716 54.4327 315.951 54.926 314.964 55.37C314.027 55.814 312.942 56.036 311.708 56.036C310.08 56.036 308.748 55.592 307.712 54.704C306.676 53.816 306.158 52.6073 306.158 51.078V30.654H286.474V44.566C286.474 48.4633 286.943 51.5713 287.88 53.89C287.338 54.4327 286.573 54.926 285.586 55.37C284.649 55.814 283.564 56.036 282.33 56.036C280.702 56.036 279.37 55.592 278.334 54.704C277.298 53.816 276.78 52.6073 276.78 51.078V13.93C276.78 10.1807 276.312 7.07266 275.374 4.606C275.917 4.06333 276.657 3.57 277.594 3.126C278.581 2.682 279.691 2.46 280.924 2.46C282.552 2.46 283.884 2.904 284.92 3.792C285.956 4.68 286.474 5.88867 286.474 7.418V25.474H306.158V13.93C306.158 10.1807 305.69 7.07266 304.752 4.606C305.295 4.06333 306.035 3.57 306.972 3.126C307.959 2.682 309.069 2.46 310.302 2.46C311.881 2.46 313.188 2.904 314.224 3.792C315.31 4.68 315.852 5.88867 315.852 7.418V44.566ZM446.269 47.674C446.91 48.6607 447.231 49.672 447.231 50.708C447.231 52.1387 446.614 53.3227 445.381 54.26C444.197 55.1973 442.717 55.666 440.941 55.666C438.622 55.666 436.821 54.8273 435.539 53.15C434.256 51.4727 433.467 49.08 433.171 45.972C430.951 52.6813 426.807 56.036 420.739 56.036C416.2 56.036 412.87 54.334 410.749 50.93C408.627 47.526 407.567 42.9873 407.567 37.314C407.567 30.4567 408.923 25.1533 411.637 21.404C414.399 17.6547 418.321 15.78 423.403 15.78C425.672 15.78 427.571 16.1747 429.101 16.964C430.679 17.7533 431.814 18.888 432.505 20.368V16.372C432.505 10.9947 431.987 6.50533 430.951 2.904C432.529 1.47333 434.355 0.757997 436.427 0.757997C438.005 0.757997 439.313 1.22666 440.349 2.164C441.385 3.052 441.903 4.26066 441.903 5.79L441.829 44.714C441.829 47.2793 442.667 48.562 444.345 48.562C445.282 48.562 445.923 48.266 446.269 47.674ZM423.551 50.782C426.412 50.782 428.583 48.8827 430.063 45.084C431.543 41.236 432.283 36.6233 432.283 31.246C432.283 27.99 431.839 25.4 430.951 23.476C430.063 21.552 428.336 20.59 425.771 20.59C423.008 20.59 420.985 21.996 419.703 24.808C418.469 27.5707 417.853 31.6653 417.853 37.092C417.853 41.7787 418.272 45.232 419.111 47.452C419.949 49.672 421.429 50.782 423.551 50.782Z" fill="white"/>
<path d="M342.88 56.036C337.207 56.036 332.767 54.2847 329.56 50.782C326.353 47.23 324.75 42.2967 324.75 35.982C324.75 29.618 326.329 24.66 329.486 21.108C332.693 17.556 337.157 15.78 342.88 15.78C348.553 15.78 352.969 17.556 356.126 21.108C359.333 24.66 360.936 29.618 360.936 35.982C360.936 42.2967 359.333 47.23 356.126 50.782C352.969 54.2847 348.553 56.036 342.88 56.036ZM342.88 52.706C348.06 52.706 350.65 47.1313 350.65 35.982C350.65 24.734 348.06 19.11 342.88 19.11C340.216 19.11 338.243 20.516 336.96 23.328C335.677 26.14 335.036 30.358 335.036 35.982C335.036 41.5567 335.677 45.75 336.96 48.562C338.243 51.3247 340.216 52.706 342.88 52.706Z" fill="#0019FF"/>
<path d="M384.288 56.036C378.615 56.036 374.175 54.2847 370.968 50.782C367.762 47.23 366.158 42.2967 366.158 35.982C366.158 29.618 367.737 24.66 370.894 21.108C374.101 17.556 378.566 15.78 384.288 15.78C389.962 15.78 394.377 17.556 397.534 21.108C400.741 24.66 402.344 29.618 402.344 35.982C402.344 42.2967 400.741 47.23 397.534 50.782C394.377 54.2847 389.962 56.036 384.288 56.036ZM384.288 52.706C389.468 52.706 392.058 47.1313 392.058 35.982C392.058 24.734 389.468 19.11 384.288 19.11C381.624 19.11 379.651 20.516 378.368 23.328C377.086 26.14 376.444 30.358 376.444 35.982C376.444 41.5567 377.086 45.75 378.368 48.562C379.651 51.3247 381.624 52.706 384.288 52.706Z" fill="#051DFC"/>
<path d="M69.3535 1H0C5.03372 2.12977 8.57595 6.64885 8.57595 11.7328V75C15.474 68.0331 19.2027 58.8066 19.2027 49.0153V13.6158C19.2027 12.6743 19.9484 11.7328 21.067 11.7328C21.9992 11.7328 22.9314 12.486 22.9314 13.6158V60.6896C29.8294 53.7226 33.5581 44.4962 33.5581 34.7048V13.6158C33.5581 12.6743 34.3039 11.7328 35.4225 11.7328C36.3546 11.7328 37.2868 12.486 37.2868 13.6158V46.3791L46.6085 36.9644C46.9814 36.5878 47.1678 36.2112 47.3543 35.8346V35.6463C47.7271 35.0814 47.7271 34.5165 47.9136 33.7634C48.8457 21.5242 58.9132 11.7328 71.4042 11.7328H80.1667L69.3535 1Z" fill="#201B21"/>
<path d="M69.3535 1H0C5.03372 2.12977 8.57595 6.64885 8.57595 11.7328V75C15.474 68.0331 19.2027 58.8066 19.2027 49.0153V13.6158C19.2027 12.6743 19.9484 11.7328 21.067 11.7328C21.9992 11.7328 22.9314 12.486 22.9314 13.6158V60.6896C29.8294 53.7226 33.5581 44.4962 33.5581 34.7048V13.6158C33.5581 12.6743 34.3039 11.7328 35.4225 11.7328C36.3546 11.7328 37.2868 12.486 37.2868 13.6158V46.3791L46.6085 36.9644C46.9814 36.5878 47.1678 36.2112 47.3543 35.8346V35.6463C47.7271 35.0814 47.7271 34.5165 47.9136 33.7634C48.8457 21.5242 58.9132 11.7328 71.4042 11.7328H80.1667L69.3535 1Z" fill="#201B21"/>
<path d="M69.3535 1H0C5.03372 2.12977 8.57595 6.64885 8.57595 11.7328V75C15.474 68.0331 19.2027 58.8066 19.2027 49.0153V13.6158C19.2027 12.6743 19.9484 11.7328 21.067 11.7328C21.9992 11.7328 22.9314 12.486 22.9314 13.6158V60.6896C29.8294 53.7226 33.5581 44.4962 33.5581 34.7048V13.6158C33.5581 12.6743 34.3039 11.7328 35.4225 11.7328C36.3546 11.7328 37.2868 12.486 37.2868 13.6158V46.3791L46.6085 36.9644C46.9814 36.5878 47.1678 36.2112 47.3543 35.8346V35.6463C47.7271 35.0814 47.7271 34.5165 47.9136 33.7634C48.8457 21.5242 58.9132 11.7328 71.4042 11.7328H80.1667L69.3535 1Z" fill="#64CBB3"/>
</svg>
